PathFileType	4	(X/Y/Z)	Walk1.trc
DataRate	CameraRate	NumFrames	NumMarkers	Units	OrigDataRate	OrigDataStartFrame	OrigNumFrames
200.000000	200.000000	4	61	mm	200.000000	262	465
Frame#	Times		LFHD		RFHD		CLAV		STRN		LASI		RASI		RACR1		RUA1		RWRR		RWRU		RCAR		LACR1		LUA1		LFA1		LWRU		LCAR		RTH3		RTH2		RTB1		RTB4		LTH1		LTH3		LTH2		LTH4		LLFC		LMFC		LTB1		LTB3		LTB2		LTB4		LLMAL		LMMAL		LMT1		LMT5		LToe		LBHD		RBHD		RTB3		RFA1		RMFC		RMT5		RLFC		RToe		LElbowM		RTH4		RTB2		RLMAL		RMMAL		RMT1		LWRR		RElbow		LPSI		RPSI		RTH1		C7		LCAL		T10		RBack		RElbowM		RCAL		LElbow
			X1	Y1	Z1	X2	Y2	Z2	X3	Y3	Z3	X4	Y4	Z4	X5	Y5	Z5	X6	Y6	Z6	X7	Y7	Z7	X8	Y8	Z8	X9	Y9	Z9	X10	Y10	Z10	X11	Y11	Z11	X12	Y12	Z12	X13	Y13	Z13	X14	Y14	Z14	X15	Y15	Z15	X16	Y16	Z16	X17	Y17	Z17	X18	Y18	Z18	X19	Y19	Z19	X20	Y20	Z20	X21	Y21	Z21	X22	Y22	Z22	X23	Y23	Z23	X24	Y24	Z24	X25	Y25	Z25	X26	Y26	Z26	X27	Y27	Z27	X28	Y28	Z28	X29	Y29	Z29	X30	Y30	Z30	X31	Y31	Z31	X32	Y32	Z32	X33	Y33	Z33	X34	Y34	Z34	X35	Y35	Z35	X36	Y36	Z36	X37	Y37	Z37	X38	Y38	Z38	X39	Y39	Z39	X40	Y40	Z40	X41	Y41	Z41	X42	Y42	Z42	X43	Y43	Z43	X44	Y44	Z44	X45	Y45	Z45	X46	Y46	Z46	X47	Y47	Z47	X48	Y48	Z48	X49	Y49	Z49	X50	Y50	Z50	X51	Y51	Z51	X52	Y52	Z52	X53	Y53	Z53	X54	Y54	Z54	X55	Y55	Z55	X56	Y56	Z56	X57	Y57	Z57	X58	Y58	Z58	X59	Y59	Z59	X60	Y60	Z60	X61	Y61	Z61

262	1.31	193.69	1538.4	-113.16	190.54	1540	-13.741	77.996	1307.7	-60.915	94.526	1175.8	-52.222	59.008	914.72	-164.66	59.404	914.57	84.538	-9.6055	1354.6	97.936	-32.462	1188.2	157.84	-25.961	780.37	240.27	34.736	784.38	208.78	17.584	722.66	260.66	13.745	1367.2	-214.74	23.34	1195.9	-282.52	144.91	941.48	-333.29	256.32	889.82	-308.95	281.55	824.35	-344.53	122.94	603.73	129.07	132.93	708.63	133.17	196.93	361.39	73.622	177.36	277.59	64.739	-15.546	746.37	-228.59	-52.926	581.53	-197.3	19.168	656.87	-191.17	-35.643	663.2	-214	-84.99	446.42	-177.3	-113.56	440.72	-46.724	-76.4	339.42	-109.15	-127.7	177.2	-94.778	-117.53	257.09	-162.51	-105.33	258.34	-102.39	-200.96	75.974	-134.21	-187.47	95.726	-55.652	-70.682	30.024	-62.614	-102.5	23.696	-144.37	-13.217	25.299	-90.598	38.036	1540	-141.74	38.09	1546.1	4.025	157.26	195.35	52.911	-19.576	900.9	230.75	179.5	458.19	-27.986	182.46	41.176	76.797	189.56	473.73	100.91	265.93	59.201	43.182	40.11	1039.9	-314.64	84.801	677.4	147.05	129.62	285.5	102.4	84.666	94.503	57.413	108.76	114.04	-19.133	224.34	57.991	3.394	206.33	842.71	-318.39	-55.563	1025	196.62	-116.64	964.25	-87.054	-112.88	959.9	12.269	44.993	752.72	165.85	-20.993	1422.3	-70.29	-262.33	55.311	-93.501	-110.33	1208.8	-61.643	-115.69	1296.7	-2.8117	-75.963	1015.8	121.01	37.869	72.854	10.431	29.323	1013.5	-244.99
263	1.315	201.24	1538	-112.31	197.67	1539.4	-12.901	85.57	1306.8	-60.799	102.02	1174.8	-52.176	65.632	913.87	-164.72	67.523	913.49	84.522	-2.2238	1353.8	97.935	-26.125	1187.6	157.93	-22.944	779.82	241.36	38.19	783.3	210.59	19.883	721.82	262.37	21.642	1366.4	-214.66	32.337	1195.2	-282.56	157.09	942.88	-332.76	269.15	893.2	-307.41	296.11	828.25	-342.74	130.58	602.77	129	140.64	707.65	133.63	208.88	361.8	73.717	192.58	277.3	65.123	-10.509	746.05	-228.64	-49.117	581.5	-197.42	23.573	656.2	-191.53	-31.226	663.04	-214.15	-82.235	446.62	-177.48	-110.26	440.96	-46.778	-74.212	339.38	-109.34	-126.6	177.51	-95.032	-116.05	257.37	-162.68	-103.69	258.51	-102.61	-200.66	76.829	-134.4	-186.85	96.393	-55.853	-70.649	30.021	-62.674	-102.55	23.704	-144.35	-13.14	25.139	-90.644	45.699	1539.2	-141.54	45.13	1545.1	4.2428	175.79	194.36	53.587	-15.296	900.35	231.64	187.04	457.96	-28.75	206.97	41.106	77.77	197.08	472.86	100.22	289.58	62.111	43.821	50.471	1039.5	-315.05	92.486	676.39	147.38	144.9	283.36	103.11	107.32	90.635	58.781	130.06	110.98	-17.972	247.99	59.305	4.2165	220.15	845.14	-317.47	-49.836	1024.5	196.73	-109.5	963.45	-86	-105.15	959.04	13.333	52.748	751.66	166.49	-13.418	1421.5	-70.363	-262.1	56.506	-93.491	-102.9	1208.1	-61.467	-108.17	1295.9	-2.9394	-69.825	1015.2	121.12	61.108	67.266	11.757	39.128	1012.8	-245.68
264	1.32	208.8	1537.5	-111.45	204.81	1538.7	-12.062	93.178	1305.8	-60.671	109.56	1173.7	-52.105	72.274	913.01	-164.78	75.711	912.41	84.507	5.2161	1352.9	97.958	-19.675	1187	158.05	-19.833	779.3	242.45	41.696	782.22	212.35	22.26	720.99	264.04	29.544	1365.5	-214.55	41.335	1194.6	-282.56	169.14	944.26	-332.19	281.76	896.5	-305.85	310.4	832.1	-340.93	138.02	601.65	128.94	148.27	706.49	134.06	220.62	362.22	73.829	207.62	277.14	65.52	-5.4489	745.75	-228.68	-45.239	581.47	-197.53	28.027	655.56	-191.9	-26.762	662.88	-214.3	-79.377	446.83	-177.64	-106.79	441.18	-46.815	-71.921	339.33	-109.52	-125.44	177.83	-95.288	-114.49	257.67	-162.84	-101.97	258.67	-102.82	-200.33	77.728	-134.59	-186.18	97.088	-56.053	-70.613	30.013	-62.728	-102.59	23.716	-144.33	-13.057	24.979	-90.689	53.385	1538.4	-141.33	52.187	1543.9	4.4498	194.14	193.62	54.279	-10.916	899.81	232.53	194.14	457.44	-29.469	231.3	41.452	78.694	204.25	471.74	99.567	312.92	65.392	44.359	60.81	1039.1	-315.41	100.06	675.27	147.71	160.05	281.35	103.84	129.93	87.192	60.16	151.29	108.25	-16.793	271.37	61.005	4.969	233.76	847.53	-316.52	-44.004	1024.1	196.85	-102.33	962.61	-84.903	-97.364	958.14	14.431	60.493	750.52	167.14	-5.8131	1420.5	-70.409	-261.86	57.769	-93.487	-95.416	1207.3	-61.246	-100.61	1295.1	-3.0237	-63.6	1014.7	121.25	84.313	62.09	13.119	48.903	1012.1	-246.33
265	1.325	216.38	1537	-110.6	211.97	1538.1	-11.225	100.82	1304.9	-60.53	117.14	1172.6	-52.011	78.941	912.13	-164.82	83.968	911.33	84.495	12.716	1352.1	98.006	-13.108	1186.3	158.19	-16.621	778.81	243.55	45.26	781.14	214.06	24.725	720.17	265.66	37.45	1364.6	-214.41	50.333	1193.9	-282.53	181.04	945.61	-331.59	294.16	899.7	-304.26	324.4	835.86	-339.1	145.28	600.36	128.93	155.82	705.17	134.45	232.14	362.64	73.964	222.44	277.1	65.935	-0.35201	745.46	-228.7	-41.284	581.45	-197.63	32.543	654.94	-192.28	-22.237	662.73	-214.42	-76.411	447.05	-177.8	-103.16	441.39	-46.831	-69.521	339.27	-109.69	-124.23	178.16	-95.54	-112.86	257.99	-162.99	-100.18	258.83	-103.01	-199.98	78.673	-134.77	-185.47	97.815	-56.247	-70.572	29.999	-62.773	-102.63	23.732	-144.31	-12.968	24.819	-90.733	61.095	1537.5	-141.14	59.263	1542.8	4.6476	212.28	193.11	54.985	-6.4327	899.28	233.41	200.81	456.61	-30.093	255.36	42.203	79.565	211.08	470.38	98.987	335.91	69.023	44.795	71.119	1038.8	-315.74	107.53	674.04	148.05	175.04	279.5	104.56	152.4	84.193	61.539	172.4	105.89	-15.604	294.4	63.077	5.6495	247.13	849.88	-315.53	-38.07	1023.6	196.99	-95.113	961.75	-83.766	-89.525	957.22	15.559	68.234	749.33	167.77	1.8215	1419.6	-70.425	-261.59	59.103	-93.485	-87.892	1206.5	-60.981	-93	1294.2	-3.0624	-57.288	1014.1	121.41	107.41	57.343	14.501	58.648	1011.4	-246.92
